<svg xmlns="http://www.w3.org/2000/svg" viewBox="0 0 24 24" fill="currentColor" id="Caret-Up-Down--Streamline-Tabler-Filled" height="24" width="24">
  <desc>
    Caret Up Down Streamline Icon: https://streamlinehq.com
  </desc>
  <path d="M11.293 3.293a1 1 0 0 1 1.414 0l6 6a0.95 0.95 0 0 1 0.073 0.082l0.006 0.008 0.016 0.022 0.042 0.059 0.009 0.015 0.007 0.01 0.014 0.027 0.024 0.044 0.007 0.017 0.01 0.02 0.012 0.032 0.015 0.034 0.007 0.025 0.008 0.02 0.005 0.026 0.012 0.037 0.004 0.028 0.006 0.025 0.003 0.026 0.006 0.033 0.002 0.03 0.003 0.028v0.026L19 10l-0.002 0.033v0.026l-0.003 0.026 -0.002 0.032 -0.005 0.029 -0.004 0.03 -0.006 0.024 -0.004 0.03 -0.012 0.035 -0.005 0.027 -0.008 0.019 -0.007 0.026 -0.015 0.033 -0.012 0.034 -0.01 0.018 -0.007 0.018 -0.024 0.043 -0.014 0.028 -0.007 0.009 -0.009 0.016 -0.042 0.058 -0.012 0.019 -0.004 0.003 -0.006 0.01a1.006 1.006 0 0 1 -0.155 0.154l-0.009 0.006 -0.022 0.016 -0.058 0.042 -0.016 0.009 -0.009 0.007 -0.028 0.014 -0.043 0.024 -0.018 0.007 -0.018 0.01 -0.034 0.012 -0.033 0.015 -0.024 0.006 -0.021 0.009 -0.027 0.005 -0.036 0.012 -0.029 0.004 -0.024 0.006 -0.028 0.003 -0.031 0.006 -0.032 0.002 -0.026 0.003h-0.026L18 11H6c-0.89 0 -1.337 -1.077 -0.707 -1.707l6 -6z" stroke-width="1"></path>
  <path d="m18 13 0.033 0.002h0.026l0.026 0.003 0.032 0.002 0.031 0.006 0.028 0.003 0.024 0.006 0.03 0.004 0.035 0.012 0.027 0.005 0.019 0.008 0.026 0.007 0.033 0.015 0.034 0.012 0.018 0.01 0.018 0.007 0.043 0.024 0.028 0.014 0.009 0.007 0.016 0.009 0.051 0.037 0.026 0.017 0.003 0.004 0.01 0.006a0.982 0.982 0 0 1 0.154 0.155l0.006 0.009 0.015 0.02 0.043 0.06 0.009 0.016 0.007 0.009 0.014 0.028 0.024 0.043 0.005 0.013 0.012 0.023 0.012 0.034 0.015 0.033 0.007 0.026 0.008 0.02 0.005 0.026 0.012 0.036 0.004 0.029 0.006 0.024 0.003 0.028 0.006 0.031 0.002 0.032 0.003 0.026v0.026L19 14l-0.002 0.033v0.026l-0.003 0.026 -0.002 0.032 -0.006 0.031 -0.003 0.028 -0.006 0.024 -0.004 0.03 -0.012 0.035 -0.005 0.027 -0.008 0.019 -0.007 0.026 -0.015 0.033 -0.012 0.034 -0.01 0.018 -0.007 0.018 -0.024 0.043 -0.014 0.028 -0.007 0.009 -0.009 0.016 -0.042 0.058 -0.012 0.019 -0.004 0.003 -0.006 0.01 -0.073 0.081 -6 6a1 1 0 0 1 -1.414 0l-6 -6C4.663 14.077 5.109 13 6 13h12z" stroke-width="1"></path>
</svg>